{"title":"The.Haunted.1991.PDTV.XviD-EXViD","uid":6600770,"size":741223572,"categoryP":"video","categoryS":"tv_shows","magnet":"?xt=urn:btih:b6a43a6f98e6b17f61bc3ac76c22329fc696776a&amp;dn=The.Haunted.1991.PDTV.XviD-EXViD&amp;tr=udp%3A%2F%2Ftracker.openbittorrent.com%3A80&amp;tr=udp%3A%2F%2Fopen.demonii.com%3A1337&amp;tr=udp%3A%2F%2Ftracker.coppersurfer.tk%3A6969&amp;tr=udp%3A%2F%2Fexodus.desync.com%3A6969","seeders":0,"leechers":1,"uploader":"TvTeam","files":6,"time":1313196244,"description":". \n  &lt;a href=&quot;\nhttp://www.torrentday.com/&quot; rel=&quot;nofollow&quot; target=&quot;_NEW&quot;&gt;\nhttp://www.torrentday.com/&lt;/a&gt;        :     The Hottest Private Tracker On The Net!!!\n\n\nTo Avoid Fakes, ALWAYS Check That The Torrent Was Added By: TvTeam.\n\n\n               www . TorrentDay . Com \n(((((((((((((= Enjoy No RAR releases =))))))))))))))))))))\n\n...................................NFO:....................................\n\n.                                                                                                     \n       \n     \n     \n       \n       \n     \n     \n                                         \n                                         \n                EXVID                    \n                                         \n         \n                                         \n         Filled the Archives             \n                                         \n         \n                                         \n                With:                    \n                                         \n         \n                                         \n                                    \n     E240                           \n                                    \n     SP               (C) 2009      \n                                         \n     \n     \n     \n                                                                                  \n                                                                                   \n                    The.Haunted.1991.PDTV.XviD-EXViD                                \n                                                                                   \n                                                                                  \n     \n                                                                                               \nEXViD aims to iNTERNAL those releases which have been lost in the archives.\nEXViD aims to PRE non-internal releases which have poor sources and are likely skipped by others. &lt;a href=&quot;\nhttp://www.imdb.com/title/tt0102007/&quot; rel=&quot;nofollow&quot; target=&quot;_NEW&quot;&gt;\nhttp://www.imdb.com/title/tt0102007/&lt;/a&gt;\nSubtitles: None\nDate: 2011.08\n\nDirector: Robert Mandel\n\nGenres: Horror\n\nPlot:\nThe Smurl family move into their new home on Chase Street only to find that it is plagued with\nthree spirits and a demon. The demon wants to destroy their family and they are constantly\ndesperate until they find the Warren family to get rid of them.\n\nCast:\nSally Kirkland \t ... \t Janet Smurl \nJeffrey DeMunn \t ... \t Jack Smurl \nLouise Latham \t ... \t Mary \nGeorge Wallace \t ... \t John (as George D. Wallace) \nJoyce Van Patten \t ... \t Cora Miller \nWilliam O'Connell \t\t\nStephen Markle \t ... \t Ed Warren \nDiane Baker \t ... \t Lorraine Warren \nCassie Yates \t ... \tDorie \nAllison Barron \t ... \t Katie \nKrista Murphy \t ... \t Colleen \nAshley Bank \t ... \t Shawn \nMichelle Collins \t ... \t Erin \nJohn O'Leary \t ... \t Father Larson \nJake Jacobs \t ... \t Father Kent\n\nStats:\nFormat                           : AVI\nFormat/Info                      : Audio Video Interleave\nFile size                        : 700 MiB\nDuration                         : 1h 31mn\nOverall bit rate                 : 1 067 Kbps\nWriting application              : Nandub v1.0rc2\nWriting library                  : Nandub build 1852/release\n\nVideo\nID                               : 0\nFormat                           : MPEG-4 Visual\nFormat profile                   : Advanced Simple@L5\nFormat settings, BVOP            : 1\nFormat settings, QPel            : No\nFormat settings, GMC             : No warppoints\nFormat settings, Matrix          : Default (H.263)\nCodec ID                         : XVID\nCodec ID/Hint                    : XviD\nDuration                         : 1h 31mn\nBit rate                         : 936 Kbps\nWidth                            : 512 pixels\nHeight                           : 384 pixels\nDisplay aspect ratio             : 4:3\nFrame rate                       : 23.976 fps\nColor space                      : YUV\nChroma subsampling               : 4:2:0\nBit depth                        : 8 bits\nScan type                        : Progressive\nCompression mode                 : Lossy\nBits/(Pixel*Frame)               : 0.198\nStream size                      : 614 MiB (88%)\nWriting library                  : XviD 64\n\nAudio\nID                               : 1\nFormat                           : MPEG Audio\nFormat version                   : Version 1\nFormat profile                   : Layer 3\nMode                             : Joint stereo\nMode extension                   : MS Stereo\nCodec ID                         : 55\nCodec ID/Hint                    : MP3\nDuration                         : 1h 31mn\nBit rate mode                    : Variable\nBit rate                         : 119 Kbps\nNominal bit rate                 : 128 Kbps\nChannel(s)                       : 2 channels\nSampling rate                    : 48.0 KHz\nCompression mode                 : Lossy\nStream size                      : 77.8 MiB (11%)\nAlignment                        : Aligned on interleaves\nInterleave, duration             : 24 ms (0.58 video frame)\nInterleave, preload duration     : 515 ms\nWriting library                  : LAME3.98r\nEncoding settings                : -m j -V 4 -q 3 -lowpass 17 --abr 128\n\n\n\n\nRelease notes:\nenjoy!\n\nLooking for:\n75TB+ Archives\nDUTCH/FLEMiSH Archives\n                                                                                                    \nGreets: CRBS EPiSODE FiCO FLS iLS KLASSiGER LiPSYNC MADE NODLABS RUNNER SPRiNTER      \n   \n\n                                                                    ASCII DONE BY XX^NFO 2oo9","torrent":{"xt":"urn:btih:b6a43a6f98e6b17f61bc3ac76c22329fc696776a","amp;dn":"The.Haunted.1991.PDTV.XviD-EXViD","amp;tr":["udp%3A%2F%2Ftracker.openbittorrent.com%3A80","udp%3A%2F%2Fopen.demonii.com%3A1337","udp%3A%2F%2Ftracker.coppersurfer.tk%3A6969","udp%3A%2F%2Fexodus.desync.com%3A6969"],"infoHash":"b6a43a6f98e6b17f61bc3ac76c22329fc696776a","infoHashBuffer":{"type":"Buffer","data":[182,164,58,111,152,230,177,127,97,188,58,199,108,34,50,159,198,150,119,106]},"announce":[],"urlList":[]}}